<?xml version="1.0" encoding="UTF-8"?>
<svg width="80" height="80" viewBox="0 0 80 80" fill="none" xmlns="http://www.w3.org/2000/svg">
  <rect width="80" height="80" rx="20" fill="#E5E7EB"/>
  <path d="M40 28C35.5817 28 32 31.5817 32 36C32 40.4183 35.5817 44 40 44C44.4183 44 48 40.4183 48 36C48 31.5817 44.4183 28 40 28ZM40 42C36.6863 42 34 39.3137 34 36C34 32.6863 36.6863 30 40 30C43.3137 30 46 32.6863 46 36C46 39.3137 43.3137 42 40 42Z" fill="#9CA3AF"/>
  <path d="M41 52H39V48H41V52Z" fill="#9CA3AF"/>
  <path d="M52 41V39H48V41H52Z" fill="#9CA3AF"/>
  <path d="M32 41V39H28V41H32Z" fill="#9CA3AF"/>
</svg>
